<svg width="2199" height="600" viewBox="0 0 2199 600" fill="none" xmlns="http://www.w3.org/2000/svg">
<path fill-rule="evenodd" clip-rule="evenodd" d="M299.867 357.595C331.101 357.595 356.42 332.276 356.42 301.042C356.42 269.808 331.101 244.488 299.867 244.488C268.633 244.488 243.313 269.808 243.313 301.042C243.313 332.276 268.633 357.595 299.867 357.595ZM299.618 347.793C325.575 347.793 346.618 326.75 346.618 300.793C346.618 274.835 325.575 253.793 299.618 253.793C273.661 253.793 252.618 274.835 252.618 300.793C252.618 326.75 273.661 347.793 299.618 347.793Z" fill="#0047FF"/>
<path fill-rule="evenodd" clip-rule="evenodd" d="M81.9113 366.971C55.7948 314.68 62.1916 251.277 98.4283 203.172C110.54 187.169 137.985 165.755 155.356 158.696C161.179 156.375 161.276 156.278 166.018 146.867C190.986 96.4116 247.74 63.783 306.108 66.1176C363.894 68.4511 415.032 101.752 439.885 153.167C443.978 161.72 444.659 162.595 449.616 164.837C488.104 182.967 518.661 220.311 529.612 262.865C547.699 333.496 514.808 406.662 450.285 439.277L442.135 443.341L435.745 454.79C425.967 472.35 421.026 479.042 408.326 491.742C363.926 536.337 297.33 549.234 239.214 524.467C204.908 509.744 178.353 484.74 161.397 451.11C155.258 438.767 155.161 438.669 148.454 435.259C120.46 420.644 96.3336 395.741 81.9113 366.971ZM133.834 180.217C142.855 173.921 154.594 167.24 155.372 168.019C155.664 168.31 154.895 172.582 153.738 177.436C152.58 182.095 151.14 191.512 150.569 198.309L149.522 210.446L141.09 220.046C121.899 241.766 107.391 275.536 107.43 298.26C107.484 329.53 118.601 356.158 140.878 378.241C159.264 396.627 173.261 404.226 197.742 409.318C217.074 413.333 248.243 410.765 260.952 403.892C263.475 402.731 264.447 403.121 269.408 407.888C272.424 410.904 278.648 416.353 283.025 419.954C287.401 423.554 291.097 426.668 291.194 426.96C291.293 428.028 275.087 434.895 263.634 438.566C234.323 447.838 192.952 446.989 168.947 436.751C157.188 431.778 140.662 422.232 131.328 415.224C68.7057 367.919 55.2449 277.485 101.067 212.79C106.686 204.837 126.172 185.545 133.834 180.217ZM219.443 98.3059C267.458 66.6334 325.724 65.5688 377.633 95.1806C392.311 103.655 415.853 127.197 425.689 143.431C429.682 149.945 432.605 155.582 432.315 155.873C431.927 156.261 429.498 155.965 426.875 155.281C424.252 154.597 415.024 153.318 406.38 152.624L390.742 151.14L380.625 141.023C355.722 116.313 325.598 104.996 291.613 107.656C262.483 109.937 237.548 123.004 212.732 148.793C202.845 159.069 199.361 166.055 195.507 183.723C190.883 205.274 192.671 228.778 200.673 250.933L202.447 256.012C201.095 258.919 199.88 261.874 198.802 264.867L195.071 268.598C190.224 273.445 184.796 279.457 183.149 281.882C179.952 286.246 179.952 286.246 177.809 282.747C174.011 276.234 167.67 259.811 164.346 247.18C157.505 221.919 156.965 190.746 163.052 172.596C172.809 143.188 194.222 114.966 219.443 98.3059ZM194.361 281.044C174.59 302.798 167.68 314.455 159.747 339.137C155.207 353.017 152.04 375.056 153.892 379.235C155.452 382.733 170.133 392.567 179.073 395.884L187.236 399.006L186.73 387.255C185.878 369.514 189.678 351.157 197.488 334.354C198.557 337.717 199.795 341.037 201.201 344.302C200.597 345.979 199.922 348.18 199.098 350.956C194.56 366.389 192.943 386.1 195.194 396.106L196.466 401.45L204.917 402.727C215.699 404.396 234.44 403.555 245.021 400.951C246.2 400.654 247.289 400.399 248.281 400.166L248.283 400.166C250.452 399.657 252.163 399.256 253.347 398.767C242.752 393.642 232.821 386.683 224.029 377.891C214.065 367.927 206.456 356.5 201.201 344.302C202.074 341.882 202.8 340.553 203.618 340.162L200.517 328.293C199.449 330.288 198.439 332.309 197.488 334.354C192 317.094 190.958 298.726 194.361 281.044ZM281.699 407.896C287.742 413.473 292.857 417.908 296.33 420.462C308.387 429.417 324.133 437.214 338.999 441.609C349.686 444.735 369.794 447.975 377.66 447.697C382.515 447.511 382.903 447.318 387.941 440.14C390.847 436.066 394.815 428.207 396.65 422.675L400.226 412.679L391.391 413.732C378.963 415.264 359.148 412.899 344.961 408.019C341.856 406.979 338.556 405.574 335.072 403.812C317.857 409.638 299.464 411 281.699 407.896ZM344.466 400.132C346.48 401.004 349.83 401.798 354.638 402.938C355.359 403.109 356.112 403.288 356.898 403.475C368.751 406.215 380.114 406.914 393.513 405.578L401.766 404.718L402.633 400.35C405.426 387.244 403.639 364.711 398.758 349.748L398.06 347.595C392.893 358.557 385.779 368.829 376.717 377.891C367.118 387.49 356.162 394.904 344.466 400.132ZM406.86 319.409C414.339 311.389 420.036 305.043 422.177 302.203C434.869 285.425 444.341 259.415 446.629 234.753C447.488 225.917 447.189 221.352 445.632 219.796C442.422 216.586 425.994 207.526 419.484 205.475C416.472 204.402 413.655 203.717 413.364 204.008C413.17 204.202 413.274 207.989 413.67 212.457C415.154 228.289 410.728 252.365 403.858 266.823C403.615 267.333 403.372 267.835 403.127 268.332C408.453 284.854 409.697 302.406 406.86 319.409ZM399.129 257.842L400.437 253.901C402.079 248.757 404.106 241.283 404.779 237.497C406.222 229.439 406.482 211.474 405.112 205.256C404.328 201.176 404.23 201.079 393.645 200.963C382.088 200.846 369.176 202.863 357.432 206.63C356.264 207.036 355.119 207.449 354.063 207.847C362.166 212.496 369.794 218.282 376.717 225.204C386.421 234.909 393.892 246.001 399.129 257.842ZM344.635 203.04C342.927 202.272 341.203 201.552 339.465 200.878L337.024 198.438C334.009 195.422 327.881 189.876 323.31 186.081L315.238 179.172L318.245 177.526C319.895 176.655 327.367 173.657 334.743 170.757C361.236 160.411 387.937 157.447 417.078 161.576C427.277 163.051 432.718 164.808 443.799 170.46C469.362 183.42 484.241 195.779 498.746 215.712C533.109 263.453 536.032 325.513 506.308 377.028C500.402 387.409 497.398 390.997 484.505 404.084C471.999 416.59 467.732 420.273 458.322 425.792C452.21 429.569 446.777 432.279 446.485 431.987C446.096 431.598 446.964 428.006 448.316 423.93C449.669 419.853 451.497 410.048 452.357 402.184L453.886 387.814L464.354 376.178C476.179 363.186 482.28 353 487.593 336.791C494.645 315.342 494.991 291.064 488.253 269.591C482.005 250.158 476.745 241.02 463.124 226.235C449.405 211.354 437.641 203.467 420.442 197.514C401.591 191.072 371.392 192.476 350.139 200.888L344.635 203.04ZM321.939 195.745C304.56 192.22 286.481 193.003 269.412 198.094C253.99 190.012 237.741 186.555 217.944 186.578C217.618 186.579 217.298 186.581 216.985 186.583C216.609 186.584 216.243 186.586 215.886 186.588C208.198 186.63 204.804 186.649 203.782 185.101C202.975 183.879 203.648 181.678 204.852 177.74L204.853 177.738C204.996 177.271 205.146 176.779 205.302 176.262C207.813 168.109 211.685 160.736 216.047 156.373C218.955 153.27 220.702 152.691 227.209 152.993C256.151 154.403 286.567 165.818 308.836 183.628C311.153 185.465 315.878 189.868 321.939 195.745ZM259.058 201.769C257.173 201.013 254.688 200.117 251.956 199.262C239.713 195.356 222.132 193.286 210.383 194.334C205.917 194.909 201.84 195.679 201.355 196.164C200.87 196.648 200.687 203.252 200.895 210.827C201.172 222.105 203.976 237.738 207.19 246.964C211.749 239.194 217.362 231.872 224.029 225.204C234.384 214.849 246.319 207.038 259.058 201.769ZM151.578 220.453C152.065 220.939 152.262 222.687 152.071 224.241C151.212 233.076 161.078 266.791 169.556 283.606L173.942 292.451L169.39 299.532C157.865 317.867 150.517 336.888 147.058 358.247C145.905 365.431 144.653 371.353 144.362 371.449C142.711 371.349 130.055 353.459 126.157 345.489C118.264 329.646 113.954 308.468 115.19 293.224C116.81 275.066 127.643 249.836 142.757 229.663C149.442 220.643 150.606 219.48 151.578 220.453ZM249.697 128.56C281.13 110.746 320.946 110.815 352.733 128.835C361.482 133.706 381.612 150.153 380.449 151.316C380.158 151.607 374.43 152.665 367.828 153.625C355.013 155.351 331.524 162.691 317.649 169.368L309.11 173.431L298.708 167.101C279.751 155.706 258.665 148.386 237.588 146.116L226.71 144.932L233.595 139.409C237.377 136.211 244.555 131.367 249.697 128.56ZM198.009 451.659L210.053 452.845L221.045 463.255C249.254 490.107 285.592 500.852 322.773 493.051C346.945 488.14 364.31 477.779 383.406 457.321C397.558 442.002 401.818 434.435 407.513 414.536C413.69 392.794 412.668 363.27 405.061 344.223C402.134 336.838 402.134 336.643 416.285 320.547L425.783 309.881L427.828 313.284C428.997 315.228 431.629 320.768 433.579 325.433C448.496 359.739 449.539 401.305 436.583 434.3C414.055 491.072 364.589 526.724 305.161 528.952C277.874 529.973 249.991 523.029 225.786 509.295C214.51 502.866 211.787 500.725 196.806 485.744C182.506 471.443 179.392 467.748 173.84 458.124C170.236 452 167.216 446.459 166.923 445.779C166.728 445.002 171.002 445.786 176.346 447.446C181.69 449.106 191.404 450.871 198.009 451.659ZM253.262 449.521C262.97 447.596 281.993 440.831 291.695 435.798C298.681 432.12 299.069 432.12 304.416 435.334C319.484 444.392 341.346 451.519 362.328 454.468C368.447 455.159 373.693 456.139 374.082 456.528C374.86 457.306 363.029 466.803 353.716 472.613C349.545 475.228 341.297 479.196 335.377 481.419C299.565 494.467 259.737 487.018 230.657 461.815L221.417 453.739L233.457 452.4C240.059 451.635 248.991 450.291 253.262 449.521ZM463.337 237.501C471.416 248.1 479.212 263.651 482.438 276.184C485.762 288.815 485.709 314.355 482.332 327.265C478.088 343.961 466.568 364.82 455.71 375.678C453.868 377.52 453.771 377.423 453.279 373.44C450.915 354.208 449.446 347.31 445.151 334.484C442.515 326.419 438.224 316.118 435.692 311.646C431.308 303.773 431.21 303.093 433.922 299.213C442.64 286.604 453.169 253.701 454.882 233.893C455.168 230.883 455.553 228.553 455.747 228.553C456.038 228.457 459.347 232.541 463.337 237.501ZM398.618 301.792C398.618 355.916 354.742 399.792 300.618 399.792C246.494 399.792 202.618 355.916 202.618 301.792C202.618 247.669 246.494 203.792 300.618 203.792C354.742 203.792 398.618 247.669 398.618 301.792Z" fill="#0047FF"/>
<path d="M203.618 340.162L200.517 328.293C199.449 330.288 198.439 332.309 197.488 334.354C198.557 337.717 199.795 341.037 201.201 344.302C202.074 341.882 202.8 340.553 203.618 340.162Z" fill="#0047FF"/>
<path d="M726.87 418C710.774 418 695.785 415.384 681.903 410.153C668.222 404.721 656.251 397.176 645.99 387.519C635.93 377.661 628.084 366.092 622.45 352.813C616.817 339.535 614 325.049 614 309.355C614 293.662 616.817 279.176 622.45 265.898C628.084 252.619 636.031 241.151 646.292 231.494C656.552 221.635 668.524 214.09 682.205 208.859C695.886 203.427 710.875 200.711 727.171 200.711C744.474 200.711 760.268 203.729 774.553 209.765C788.837 215.599 800.909 224.351 810.767 236.02L785.417 259.862C777.772 251.613 769.221 245.477 759.765 241.453C750.309 237.228 740.048 235.115 728.982 235.115C717.917 235.115 707.756 236.926 698.501 240.547C689.448 244.169 681.5 249.299 674.66 255.939C668.021 262.578 662.789 270.425 658.967 279.478C655.345 288.532 653.535 298.491 653.535 309.355C653.535 320.22 655.345 330.179 658.967 339.233C662.789 348.286 668.021 356.133 674.66 362.772C681.5 369.412 689.448 374.542 698.501 378.164C707.756 381.785 717.917 383.596 728.982 383.596C740.048 383.596 750.309 381.584 759.765 377.56C769.221 373.335 777.772 366.997 785.417 358.547L810.767 382.691C800.909 394.159 788.837 402.91 774.553 408.946C760.268 414.982 744.373 418 726.87 418Z" fill="white"/>
<path d="M829.648 414.982V253.826H867.372V414.982H829.648ZM848.661 227.269C841.619 227.269 835.784 225.055 831.157 220.629C826.731 216.203 824.518 210.871 824.518 204.634C824.518 198.196 826.731 192.864 831.157 188.639C835.784 184.213 841.619 182 848.661 182C855.703 182 861.437 184.113 865.863 188.338C870.49 192.361 872.804 197.492 872.804 203.729C872.804 210.368 870.591 216.002 866.165 220.629C861.738 225.055 855.904 227.269 848.661 227.269Z" fill="white"/>
<path d="M901.795 414.982V253.826H937.708V298.189L933.483 285.212C938.311 274.348 945.856 266.099 956.117 260.465C966.579 254.832 979.556 252.015 995.048 252.015V287.928C993.438 287.526 991.93 287.325 990.521 287.325C989.113 287.124 987.704 287.023 986.296 287.023C972.011 287.023 960.644 291.248 952.194 299.698C943.744 307.947 939.519 320.321 939.519 336.818V414.982H901.795Z" fill="white"/>
<path d="M1084.43 417.095C1067.52 417.095 1052.44 413.574 1039.16 406.532C1026.08 399.289 1015.82 389.431 1008.37 376.957C1000.93 364.483 997.208 350.298 997.208 334.404C997.208 318.309 1000.93 304.124 1008.37 291.852C1015.82 279.378 1026.08 269.62 1039.16 262.578C1052.44 255.536 1067.52 252.015 1084.43 252.015C1100.12 252.015 1113.9 255.234 1125.77 261.673C1137.84 267.91 1147 277.165 1153.23 289.437L1124.26 306.338C1119.43 298.692 1113.5 293.059 1106.46 289.437C1099.62 285.816 1092.17 284.005 1084.12 284.005C1074.87 284.005 1066.52 286.017 1059.07 290.041C1051.63 294.065 1045.8 299.899 1041.57 307.545C1037.35 314.989 1035.23 323.942 1035.23 334.404C1035.23 344.866 1037.35 353.92 1041.57 361.565C1045.8 369.009 1051.63 374.743 1059.07 378.767C1066.52 382.791 1074.87 384.803 1084.12 384.803C1092.17 384.803 1099.62 382.992 1106.46 379.371C1113.5 375.749 1119.43 370.116 1124.26 362.471L1153.23 379.371C1147 391.442 1137.84 400.798 1125.77 407.437C1113.9 413.876 1100.12 417.095 1084.43 417.095Z" fill="white"/>
<path d="M1169.28 414.982V191.054H1207V414.982H1169.28Z" fill="white"/>
<path d="M1317.18 417.095C1299.27 417.095 1283.58 413.574 1270.1 406.532C1256.82 399.289 1246.46 389.431 1239.01 376.957C1231.77 364.483 1228.15 350.298 1228.15 334.404C1228.15 318.309 1231.67 304.124 1238.71 291.852C1245.95 279.378 1255.81 269.62 1268.29 262.578C1280.96 255.536 1295.35 252.015 1311.44 252.015C1327.14 252.015 1341.12 255.436 1353.39 262.276C1365.66 269.117 1375.32 278.774 1382.36 291.248C1389.4 303.722 1392.93 318.409 1392.93 335.309C1392.93 336.919 1392.82 338.73 1392.62 340.742C1392.62 342.754 1392.52 344.665 1392.32 346.476H1258.03V321.427H1372.4L1357.62 329.274C1357.82 320.019 1355.91 311.87 1351.88 304.829C1347.86 297.787 1342.33 292.254 1335.28 288.23C1328.44 284.206 1320.5 282.194 1311.44 282.194C1302.19 282.194 1294.04 284.206 1287 288.23C1280.16 292.254 1274.72 297.887 1270.7 305.13C1266.88 312.172 1264.97 320.522 1264.97 330.179V336.215C1264.97 345.872 1267.18 354.423 1271.61 361.867C1276.03 369.311 1282.27 375.045 1290.32 379.069C1298.36 383.093 1307.62 385.105 1318.08 385.105C1327.14 385.105 1335.28 383.696 1342.53 380.88C1349.77 378.063 1356.21 373.637 1361.84 367.601L1382.06 390.839C1374.82 399.289 1365.66 405.828 1354.6 410.455C1343.73 414.881 1331.26 417.095 1317.18 417.095Z" fill="white"/>
<path d="M1583.79 418C1567.69 418 1552.7 415.384 1538.82 410.153C1525.14 404.721 1513.17 397.176 1502.91 387.519C1492.85 377.661 1485 366.092 1479.37 352.813C1473.74 339.535 1470.92 325.049 1470.92 309.355C1470.92 293.662 1473.74 279.176 1479.37 265.898C1485 252.619 1492.95 241.151 1503.21 231.494C1513.47 221.635 1525.44 214.09 1539.12 208.859C1552.81 203.427 1567.79 200.711 1584.09 200.711C1601.39 200.711 1617.19 203.729 1631.47 209.765C1645.76 215.599 1657.83 224.351 1667.69 236.02L1642.34 259.862C1634.69 251.613 1626.14 245.477 1616.68 241.453C1607.23 237.228 1596.97 235.115 1585.9 235.115C1574.84 235.115 1564.68 236.926 1555.42 240.547C1546.37 244.169 1538.42 249.299 1531.58 255.939C1524.94 262.578 1519.71 270.425 1515.89 279.478C1512.26 288.532 1510.45 298.491 1510.45 309.355C1510.45 320.22 1512.26 330.179 1515.89 339.233C1519.71 348.286 1524.94 356.133 1531.58 362.772C1538.42 369.412 1546.37 374.542 1555.42 378.164C1564.68 381.785 1574.84 383.596 1585.9 383.596C1596.97 383.596 1607.23 381.584 1616.68 377.56C1626.14 373.335 1634.69 366.997 1642.34 358.547L1667.69 382.691C1657.83 394.159 1645.76 402.91 1631.47 408.946C1617.19 414.982 1601.29 418 1583.79 418Z" fill="white"/>
<path d="M1686.57 414.982V191.054H1724.29V414.982H1686.57Z" fill="white"/>
<path d="M1826.92 417.095C1813.24 417.095 1801.17 414.58 1790.7 409.55C1780.24 404.319 1772.09 396.472 1766.26 386.01C1760.42 375.347 1757.51 361.968 1757.51 345.872V253.826H1795.23V340.742C1795.23 355.228 1798.45 366.092 1804.89 373.335C1811.53 380.377 1820.88 383.898 1832.95 383.898C1841.81 383.898 1849.45 382.087 1855.89 378.465C1862.53 374.844 1867.66 369.412 1871.28 362.169C1875.1 354.926 1877.02 345.973 1877.02 335.309V253.826H1914.74V414.982H1878.83V371.524L1885.16 384.803C1879.73 395.265 1871.78 403.313 1861.32 408.946C1850.86 414.379 1839.39 417.095 1826.92 417.095Z" fill="white"/>
<path d="M2038.37 417.095C2024.69 417.095 2012.52 414.077 2001.86 408.041C1991.19 402.005 1982.74 392.951 1976.51 380.88C1970.47 368.607 1967.45 353.115 1967.45 334.404C1967.45 315.492 1970.57 300 1976.81 287.928C1983.25 275.857 1991.8 266.904 2002.46 261.069C2013.32 255.033 2025.29 252.015 2038.37 252.015C2054.27 252.015 2068.25 255.436 2080.32 262.276C2092.59 269.117 2102.25 278.673 2109.29 290.946C2116.54 303.219 2120.16 317.705 2120.16 334.404C2120.16 351.103 2116.54 365.589 2109.29 377.862C2102.25 390.135 2092.59 399.792 2080.32 406.834C2068.25 413.674 2054.27 417.095 2038.37 417.095ZM1949.04 414.982V191.054H1986.77V291.248L1983.75 334.102L1984.96 376.957V414.982H1949.04ZM2034.15 384.803C2043.2 384.803 2051.25 382.791 2058.29 378.767C2065.53 374.743 2071.27 368.909 2075.49 361.263C2079.72 353.618 2081.83 344.665 2081.83 334.404C2081.83 323.942 2079.72 314.989 2075.49 307.545C2071.27 299.899 2065.53 294.065 2058.29 290.041C2051.25 286.017 2043.2 284.005 2034.15 284.005C2025.09 284.005 2016.95 286.017 2009.7 290.041C2002.46 294.065 1996.73 299.899 1992.5 307.545C1988.28 314.989 1986.16 323.942 1986.16 334.404C1986.16 344.665 1988.28 353.618 1992.5 361.263C1996.73 368.909 2002.46 374.743 2009.7 378.767C2016.95 382.791 2025.09 384.803 2034.15 384.803Z" fill="white"/>
<path d="M848.661 227.269C841.619 227.269 835.784 225.055 831.157 220.629C826.731 216.203 824.518 210.871 824.518 204.634C824.518 198.196 826.731 192.864 831.157 188.639C835.784 184.213 841.619 182 848.661 182C855.703 182 861.437 184.113 865.863 188.338C870.49 192.361 872.804 197.492 872.804 203.729C872.804 210.368 870.591 216.002 866.165 220.629C861.738 225.055 855.904 227.269 848.661 227.269Z" fill="#0047FF"/>
</svg>
